<mxfile host="app.diagrams.net" modified="2023-05-22T11:04:01.170Z" agent="Mozilla/5.0 (Windows NT 10.0; Win64; x64) AppleWebKit/537.36 (KHTML, like Gecko) Chrome/113.0.0.0 Safari/537.36" etag="He_cGEN-OlfdJBsOIXxT" version="21.3.2" type="github">
  <diagram id="R2lEEEUBdFMjLlhIrx00" name="Page-1">
    <mxGraphModel dx="607" dy="273" grid="1" gridSize="10" guides="1" tooltips="1" connect="1" arrows="1" fold="1" page="1" pageScale="1" pageWidth="850" pageHeight="1100" math="0" shadow="0" extFonts="Permanent Marker^https://fonts.googleapis.com/css?family=Permanent+Marker">
      <root>
        <mxCell id="0" />
        <mxCell id="1" parent="0" />
        <mxCell id="qLsG4sS9ALIZC5-4dvoT-34" value="" style="edgeStyle=orthogonalEdgeStyle;rounded=0;orthogonalLoop=1;jettySize=auto;html=1;" edge="1" parent="1" source="qLsG4sS9ALIZC5-4dvoT-1" target="qLsG4sS9ALIZC5-4dvoT-7">
          <mxGeometry relative="1" as="geometry" />
        </mxCell>
        <mxCell id="qLsG4sS9ALIZC5-4dvoT-1" value="COLABORADORES" style="rounded=0;whiteSpace=wrap;html=1;" vertex="1" parent="1">
          <mxGeometry x="33" y="160" width="120" height="60" as="geometry" />
        </mxCell>
        <mxCell id="qLsG4sS9ALIZC5-4dvoT-31" value="" style="edgeStyle=orthogonalEdgeStyle;rounded=0;orthogonalLoop=1;jettySize=auto;html=1;" edge="1" parent="1" source="qLsG4sS9ALIZC5-4dvoT-2" target="qLsG4sS9ALIZC5-4dvoT-8">
          <mxGeometry relative="1" as="geometry" />
        </mxCell>
        <mxCell id="qLsG4sS9ALIZC5-4dvoT-35" value="" style="edgeStyle=orthogonalEdgeStyle;rounded=0;orthogonalLoop=1;jettySize=auto;html=1;" edge="1" parent="1" source="qLsG4sS9ALIZC5-4dvoT-2" target="qLsG4sS9ALIZC5-4dvoT-9">
          <mxGeometry relative="1" as="geometry" />
        </mxCell>
        <mxCell id="qLsG4sS9ALIZC5-4dvoT-2" value="ARTICULOS" style="rounded=0;whiteSpace=wrap;html=1;" vertex="1" parent="1">
          <mxGeometry x="363" y="160" width="120" height="60" as="geometry" />
        </mxCell>
        <mxCell id="qLsG4sS9ALIZC5-4dvoT-3" value="CATEGORIAS" style="rounded=0;whiteSpace=wrap;html=1;" vertex="1" parent="1">
          <mxGeometry x="363" y="380" width="120" height="60" as="geometry" />
        </mxCell>
        <mxCell id="qLsG4sS9ALIZC5-4dvoT-4" value="COMENTARIOS" style="rounded=0;whiteSpace=wrap;html=1;" vertex="1" parent="1">
          <mxGeometry x="705" y="160" width="120" height="60" as="geometry" />
        </mxCell>
        <mxCell id="qLsG4sS9ALIZC5-4dvoT-30" value="" style="edgeStyle=orthogonalEdgeStyle;rounded=0;orthogonalLoop=1;jettySize=auto;html=1;" edge="1" parent="1" source="qLsG4sS9ALIZC5-4dvoT-5" target="qLsG4sS9ALIZC5-4dvoT-10">
          <mxGeometry relative="1" as="geometry" />
        </mxCell>
        <mxCell id="qLsG4sS9ALIZC5-4dvoT-5" value="USUARIOS" style="rounded=0;whiteSpace=wrap;html=1;" vertex="1" parent="1">
          <mxGeometry x="705" y="380" width="120" height="60" as="geometry" />
        </mxCell>
        <mxCell id="qLsG4sS9ALIZC5-4dvoT-33" value="" style="edgeStyle=orthogonalEdgeStyle;rounded=0;orthogonalLoop=1;jettySize=auto;html=1;" edge="1" parent="1" source="qLsG4sS9ALIZC5-4dvoT-7" target="qLsG4sS9ALIZC5-4dvoT-2">
          <mxGeometry relative="1" as="geometry" />
        </mxCell>
        <mxCell id="qLsG4sS9ALIZC5-4dvoT-7" value="ESCRIBEN" style="rhombus;whiteSpace=wrap;html=1;" vertex="1" parent="1">
          <mxGeometry x="190" y="160" width="130" height="60" as="geometry" />
        </mxCell>
        <mxCell id="qLsG4sS9ALIZC5-4dvoT-32" value="" style="edgeStyle=orthogonalEdgeStyle;rounded=0;orthogonalLoop=1;jettySize=auto;html=1;" edge="1" parent="1" source="qLsG4sS9ALIZC5-4dvoT-8" target="qLsG4sS9ALIZC5-4dvoT-4">
          <mxGeometry relative="1" as="geometry" />
        </mxCell>
        <mxCell id="qLsG4sS9ALIZC5-4dvoT-8" value="RECIBEN" style="rhombus;whiteSpace=wrap;html=1;" vertex="1" parent="1">
          <mxGeometry x="530" y="160" width="130" height="60" as="geometry" />
        </mxCell>
        <mxCell id="qLsG4sS9ALIZC5-4dvoT-36" value="" style="edgeStyle=orthogonalEdgeStyle;rounded=0;orthogonalLoop=1;jettySize=auto;html=1;" edge="1" parent="1" source="qLsG4sS9ALIZC5-4dvoT-9" target="qLsG4sS9ALIZC5-4dvoT-3">
          <mxGeometry relative="1" as="geometry" />
        </mxCell>
        <mxCell id="qLsG4sS9ALIZC5-4dvoT-9" value="PERTENECEN &lt;br&gt;A" style="rhombus;whiteSpace=wrap;html=1;" vertex="1" parent="1">
          <mxGeometry x="358" y="260" width="130" height="80" as="geometry" />
        </mxCell>
        <mxCell id="qLsG4sS9ALIZC5-4dvoT-29" value="" style="edgeStyle=orthogonalEdgeStyle;rounded=0;orthogonalLoop=1;jettySize=auto;html=1;" edge="1" parent="1" source="qLsG4sS9ALIZC5-4dvoT-10" target="qLsG4sS9ALIZC5-4dvoT-4">
          <mxGeometry relative="1" as="geometry" />
        </mxCell>
        <mxCell id="qLsG4sS9ALIZC5-4dvoT-10" value="ESCRIBEN" style="rhombus;whiteSpace=wrap;html=1;" vertex="1" parent="1">
          <mxGeometry x="700" y="275" width="130" height="50" as="geometry" />
        </mxCell>
        <mxCell id="qLsG4sS9ALIZC5-4dvoT-13" value="" style="endArrow=none;html=1;rounded=0;entryX=0;entryY=0.5;entryDx=0;entryDy=0;" edge="1" parent="1" target="qLsG4sS9ALIZC5-4dvoT-7">
          <mxGeometry width="50" height="50" relative="1" as="geometry">
            <mxPoint x="153" y="190" as="sourcePoint" />
            <mxPoint x="203" y="140" as="targetPoint" />
          </mxGeometry>
        </mxCell>
        <mxCell id="qLsG4sS9ALIZC5-4dvoT-16" value="" style="endArrow=none;html=1;rounded=0;entryX=0;entryY=0.5;entryDx=0;entryDy=0;exitX=1;exitY=0.5;exitDx=0;exitDy=0;" edge="1" parent="1" source="qLsG4sS9ALIZC5-4dvoT-2" target="qLsG4sS9ALIZC5-4dvoT-8">
          <mxGeometry width="50" height="50" relative="1" as="geometry">
            <mxPoint x="488" y="189.41" as="sourcePoint" />
            <mxPoint x="528" y="189.41" as="targetPoint" />
          </mxGeometry>
        </mxCell>
        <mxCell id="qLsG4sS9ALIZC5-4dvoT-18" value="" style="endArrow=none;html=1;rounded=0;exitX=0.5;exitY=0;exitDx=0;exitDy=0;" edge="1" parent="1" source="qLsG4sS9ALIZC5-4dvoT-9">
          <mxGeometry width="50" height="50" relative="1" as="geometry">
            <mxPoint x="373" y="270" as="sourcePoint" />
            <mxPoint x="423" y="220" as="targetPoint" />
          </mxGeometry>
        </mxCell>
        <mxCell id="qLsG4sS9ALIZC5-4dvoT-19" value="" style="endArrow=none;html=1;rounded=0;exitX=0.5;exitY=0;exitDx=0;exitDy=0;" edge="1" parent="1">
          <mxGeometry width="50" height="50" relative="1" as="geometry">
            <mxPoint x="422.40999999999997" y="380" as="sourcePoint" />
            <mxPoint x="422.40999999999997" y="340" as="targetPoint" />
          </mxGeometry>
        </mxCell>
        <mxCell id="qLsG4sS9ALIZC5-4dvoT-22" value="" style="endArrow=none;html=1;rounded=0;exitX=0.5;exitY=0;exitDx=0;exitDy=0;entryX=0.5;entryY=1;entryDx=0;entryDy=0;" edge="1" parent="1" target="qLsG4sS9ALIZC5-4dvoT-10">
          <mxGeometry width="50" height="50" relative="1" as="geometry">
            <mxPoint x="764.41" y="380" as="sourcePoint" />
            <mxPoint x="764.41" y="340" as="targetPoint" />
          </mxGeometry>
        </mxCell>
        <mxCell id="qLsG4sS9ALIZC5-4dvoT-23" value="" style="endArrow=none;html=1;rounded=0;entryX=0.5;entryY=1;entryDx=0;entryDy=0;" edge="1" parent="1" target="qLsG4sS9ALIZC5-4dvoT-4">
          <mxGeometry width="50" height="50" relative="1" as="geometry">
            <mxPoint x="764.8" y="275" as="sourcePoint" />
            <mxPoint x="765.2099999999999" y="225" as="targetPoint" />
          </mxGeometry>
        </mxCell>
        <mxCell id="qLsG4sS9ALIZC5-4dvoT-25" value="" style="endArrow=block;html=1;rounded=0;endFill=1;" edge="1" parent="1">
          <mxGeometry width="50" height="50" relative="1" as="geometry">
            <mxPoint x="303" y="300" as="sourcePoint" />
            <mxPoint x="358" y="299.40999999999997" as="targetPoint" />
          </mxGeometry>
        </mxCell>
        <mxCell id="qLsG4sS9ALIZC5-4dvoT-26" value="" style="endArrow=none;html=1;rounded=0;" edge="1" parent="1">
          <mxGeometry width="50" height="50" relative="1" as="geometry">
            <mxPoint x="303" y="410" as="sourcePoint" />
            <mxPoint x="303" y="300" as="targetPoint" />
          </mxGeometry>
        </mxCell>
        <mxCell id="qLsG4sS9ALIZC5-4dvoT-27" value="" style="endArrow=none;html=1;rounded=0;" edge="1" parent="1">
          <mxGeometry width="50" height="50" relative="1" as="geometry">
            <mxPoint x="303" y="410" as="sourcePoint" />
            <mxPoint x="363" y="410" as="targetPoint" />
          </mxGeometry>
        </mxCell>
        <mxCell id="qLsG4sS9ALIZC5-4dvoT-37" value="ID_Colaborador" style="ellipse;whiteSpace=wrap;html=1;fontSize=6;fontStyle=4" vertex="1" parent="1">
          <mxGeometry y="240" width="60" height="20" as="geometry" />
        </mxCell>
        <mxCell id="qLsG4sS9ALIZC5-4dvoT-41" value="Nombre" style="ellipse;whiteSpace=wrap;html=1;fontSize=6;fontStyle=0" vertex="1" parent="1">
          <mxGeometry x="70" y="240" width="60" height="20" as="geometry" />
        </mxCell>
        <mxCell id="qLsG4sS9ALIZC5-4dvoT-42" value="Apellido" style="ellipse;whiteSpace=wrap;html=1;fontSize=6;fontStyle=0" vertex="1" parent="1">
          <mxGeometry x="140" y="240" width="60" height="20" as="geometry" />
        </mxCell>
        <mxCell id="qLsG4sS9ALIZC5-4dvoT-43" value="nombre_usuario" style="ellipse;whiteSpace=wrap;html=1;fontSize=6;fontStyle=0" vertex="1" parent="1">
          <mxGeometry x="20" y="130" width="60" height="20" as="geometry" />
        </mxCell>
        <mxCell id="qLsG4sS9ALIZC5-4dvoT-44" value="contraseÃ±a" style="ellipse;whiteSpace=wrap;html=1;fontSize=6;fontStyle=0" vertex="1" parent="1">
          <mxGeometry x="40" y="100" width="60" height="20" as="geometry" />
        </mxCell>
        <mxCell id="qLsG4sS9ALIZC5-4dvoT-45" value="email" style="ellipse;whiteSpace=wrap;html=1;fontSize=6;fontStyle=0" vertex="1" parent="1">
          <mxGeometry x="93" y="130" width="60" height="20" as="geometry" />
        </mxCell>
        <mxCell id="qLsG4sS9ALIZC5-4dvoT-46" value="estado" style="ellipse;whiteSpace=wrap;html=1;fontSize=6;fontStyle=0" vertex="1" parent="1">
          <mxGeometry x="120" y="100" width="60" height="20" as="geometry" />
        </mxCell>
        <mxCell id="qLsG4sS9ALIZC5-4dvoT-47" value="fecha_registro" style="ellipse;whiteSpace=wrap;html=1;fontSize=6;fontStyle=0" vertex="1" parent="1">
          <mxGeometry x="100" y="275" width="60" height="20" as="geometry" />
        </mxCell>
        <mxCell id="qLsG4sS9ALIZC5-4dvoT-48" value="avatar" style="ellipse;whiteSpace=wrap;html=1;fontSize=6;fontStyle=0" vertex="1" parent="1">
          <mxGeometry x="33" y="275" width="60" height="20" as="geometry" />
        </mxCell>
        <mxCell id="qLsG4sS9ALIZC5-4dvoT-50" value="ID_Articulo" style="ellipse;whiteSpace=wrap;html=1;fontSize=6;fontStyle=4" vertex="1" parent="1">
          <mxGeometry x="290" y="110" width="60" height="20" as="geometry" />
        </mxCell>
        <mxCell id="qLsG4sS9ALIZC5-4dvoT-51" value="titulo" style="ellipse;whiteSpace=wrap;html=1;fontSize=6;fontStyle=0" vertex="1" parent="1">
          <mxGeometry x="320" y="90" width="60" height="20" as="geometry" />
        </mxCell>
        <mxCell id="qLsG4sS9ALIZC5-4dvoT-52" value="resumen" style="ellipse;whiteSpace=wrap;html=1;fontSize=6;fontStyle=0" vertex="1" parent="1">
          <mxGeometry x="358" y="70" width="60" height="20" as="geometry" />
        </mxCell>
        <mxCell id="qLsG4sS9ALIZC5-4dvoT-53" value="contenido" style="ellipse;whiteSpace=wrap;html=1;fontSize=6;fontStyle=0" vertex="1" parent="1">
          <mxGeometry x="393" y="50" width="60" height="20" as="geometry" />
        </mxCell>
        <mxCell id="qLsG4sS9ALIZC5-4dvoT-54" value="fecha_publicacion" style="ellipse;whiteSpace=wrap;html=1;fontSize=6;fontStyle=0" vertex="1" parent="1">
          <mxGeometry x="428" y="70" width="60" height="20" as="geometry" />
        </mxCell>
        <mxCell id="qLsG4sS9ALIZC5-4dvoT-55" value="estado" style="ellipse;whiteSpace=wrap;html=1;fontSize=6;fontStyle=0" vertex="1" parent="1">
          <mxGeometry x="460" y="90" width="60" height="20" as="geometry" />
        </mxCell>
        <mxCell id="qLsG4sS9ALIZC5-4dvoT-56" value="ID_Colaborador" style="ellipse;whiteSpace=wrap;html=1;fontSize=6;fontStyle=0" vertex="1" parent="1">
          <mxGeometry x="483" y="110" width="60" height="20" as="geometry" />
        </mxCell>
        <mxCell id="qLsG4sS9ALIZC5-4dvoT-57" value="imagen" style="ellipse;whiteSpace=wrap;html=1;fontSize=6;fontStyle=0" vertex="1" parent="1">
          <mxGeometry x="483" y="130" width="60" height="20" as="geometry" />
        </mxCell>
        <mxCell id="qLsG4sS9ALIZC5-4dvoT-58" value="ID_Comentario" style="ellipse;whiteSpace=wrap;html=1;fontSize=6;fontStyle=4" vertex="1" parent="1">
          <mxGeometry x="645" y="100" width="60" height="20" as="geometry" />
        </mxCell>
        <mxCell id="qLsG4sS9ALIZC5-4dvoT-59" value="comentario" style="ellipse;whiteSpace=wrap;html=1;fontSize=6;fontStyle=0" vertex="1" parent="1">
          <mxGeometry x="710" y="90" width="60" height="20" as="geometry" />
        </mxCell>
        <mxCell id="qLsG4sS9ALIZC5-4dvoT-60" value="ID_usuario" style="ellipse;whiteSpace=wrap;html=1;fontSize=6;fontStyle=0" vertex="1" parent="1">
          <mxGeometry x="780" y="90" width="60" height="20" as="geometry" />
        </mxCell>
      </root>
    </mxGraphModel>
  </diagram>
</mxfile>
